<svg id="Tracés" xmlns="http://www.w3.org/2000/svg" viewBox="0 0 92 92"><defs><style>.cls-1,.cls-2,.cls-3,.cls-4{fill:none;stroke:#e7e7e7;stroke-width:3px;}.cls-1,.cls-2{stroke-linecap:round;}.cls-2{stroke-dasharray:0 8.17;}.cls-4{stroke-linecap:square;}</style></defs><g id="Tracé_2451" data-name="Tracé 2451"><line class="cls-1" x1="30.65" y1="23.69" x2="30.65" y2="23.69"/><path class="cls-2" d="M37,18.59c5.59-3.08,11.48-2.77,17.5.91,3.37,2.05,4.77,3.69,7.38,6.86"/><line class="cls-1" x1="64.5" y1="29.5" x2="64.5" y2="29.5"/></g><path id="Tracé_2451-2" data-name="Tracé 2451" class="cls-3" d="M13.54,75.46a34.39,34.39,0,0,0,10,2.58,13.16,13.16,0,0,0,9.08-2.65c4.27-3.52,4.94-9.94,3.57-15.3C33.62,49.92,25,40.62,28.5,29.5"/><polyline class="cls-4" points="74.17 22.86 71.7 38.21 56.2 36.97"/><polyline class="cls-4" points="80.35 30.72 77.88 46.07 62.38 44.83"/></svg>