<svg id="Tracés" xmlns="http://www.w3.org/2000/svg" viewBox="0 0 92 92"><defs><style>.cls-1,.cls-2,.cls-3{fill:none;stroke:#e7e7e7;stroke-width:3px;}.cls-1{stroke-linecap:square;}.cls-3{stroke-linecap:round;stroke-dasharray:0 8.961;}</style></defs><g id="Calque_2" data-name="Calque 2"><path id="Tracé_2519" data-name="Tracé 2519" class="cls-1" d="M71.208,49.423l6.961,13.543L65.225,70.987"/><path id="Tracé_2451" data-name="Tracé 2451" class="cls-2" d="M17.6,49.605c2.236.94,4.9.151,7.047-.672C30.717,46.6,35.76,42.36,41.568,39.515c.606-.3,1.22-.578,1.842-.838a13.847,13.847,0,0,1,7.578-1.265,6.837,6.837,0,0,1,5.543,4.75c.848,2.891.222,6.057-.536,8.9q-.207.777-.438,1.548c-.826,2.774-1.888,5.467-2.936,8.162a25.119,25.119,0,0,1-4.97,8.383c-1.877,1.948-5.015,3.039-7.6,1.925A5.95,5.95,0,0,1,36.692,66.5c-.535-3.622,1.777-7.024,4.971-8.542A21.248,21.248,0,0,1,52.449,56.38c7.292.629,14.334,2.942,21.242,5.231.932.309,3.531,1.1,4.478,1.355"/><path id="Tracé_2451-2" data-name="Tracé 2451" class="cls-3" d="M16.587,13.114C20.45,10.877,28.394,6.832,30.9,12.58c2.38,5.471-4.5,11.631-7.463,15.382-3.512,4.454-10.66,11.5-8.727,18.024A5.2,5.2,0,0,0,17.6,49.605"/></g></svg>