<svg id="Tracés" xmlns="http://www.w3.org/2000/svg" viewBox="0 0 92 92"><defs><style>.cls-1{fill:none;stroke:#e7e7e7;stroke-width:3px;}.cls-2{fill:#e7e7e7;}</style></defs><rect class="cls-1" x="22.517" y="22.919" width="46.966" height="46.966"/><path class="cls-2" d="M53.688,50.53c-1.034,3.477-4.073,5.553-8.127,5.553-5.5,0-9.192-4.151-9.192-10.364,0-6.179,3.694-10.33,9.192-10.33,4.055,0,7.093,2.076,8.127,5.552l.037.125h3.262l-.055-.218c-1.322-5.149-5.567-8.223-11.355-8.223-7.359,0-12.5,5.384-12.5,13.128,0,7.71,5.14,13.094,12.5,13.094,5.788,0,10.033-3.075,11.355-8.223l.055-.219H53.725Z"/></svg>