<svg id="Tracés" xmlns="http://www.w3.org/2000/svg" viewBox="0 0 92 92"><defs><style>.cls-1{fill:none;stroke:#e7e7e7;stroke-width:3px;}</style></defs><polygon class="cls-1" points="62.859 29.542 62.859 22.919 29.141 22.919 29.141 29.542 22.517 29.542 22.517 62.458 29.141 62.458 29.141 69.884 62.859 69.884 62.859 62.458 69.483 62.458 69.483 29.542 62.859 29.542"/><polygon class="cls-1" points="29.141 22.919 29.141 16.697 16.295 16.697 16.295 29.542 22.517 29.542 29.141 29.542 29.141 22.919"/><polygon class="cls-1" points="22.517 62.458 16.295 62.458 16.295 75.303 29.141 75.303 29.141 69.884 29.141 62.458 22.517 62.458"/><polygon class="cls-1" points="69.483 29.542 75.705 29.542 75.705 16.697 62.859 16.697 62.859 22.919 62.859 29.542 69.483 29.542"/><polygon class="cls-1" points="62.859 69.884 62.859 75.303 75.705 75.303 75.705 62.458 69.483 62.458 62.859 62.458 62.859 69.884"/></svg>