<svg xmlns="http://www.w3.org/2000/svg" viewBox="0 0 92 92"><defs><style>.cls-1{fill:#292929;}.cls-2,.cls-3,.cls-4,.cls-5{fill:none;stroke:#e7e7e7;stroke-width:3px;}.cls-2,.cls-3{stroke-linecap:round;}.cls-3{stroke-dasharray:0 8.168;}.cls-5{stroke-linecap:square;}</style></defs><g id="Fond"><rect class="cls-1" width="92" height="92"/></g><g id="Tracés"><g id="Tracé_2451" data-name="Tracé 2451"><line class="cls-2" x1="30.655" y1="23.691" x2="30.655" y2="23.691"/><path class="cls-3" d="M37,18.592c5.591-3.081,11.481-2.768,17.5.908,3.366,2.054,4.767,3.687,7.385,6.859"/><line class="cls-2" x1="64.5" y1="29.5" x2="64.5" y2="29.5"/></g><path id="Tracé_2451-2" data-name="Tracé 2451" class="cls-4" d="M13.541,75.457a34.287,34.287,0,0,0,10.04,2.582,13.192,13.192,0,0,0,9.08-2.648c4.264-3.522,4.936-9.944,3.564-15.3C33.622,49.92,24.968,40.621,28.5,29.5"/><polyline class="cls-5" points="74.175 22.855 71.7 38.207 56.2 36.967"/><polyline class="cls-5" points="80.35 30.721 77.875 46.073 62.375 44.833"/></g></svg>