<svg xmlns="http://www.w3.org/2000/svg" viewBox="0 0 92 92"><defs><style>.cls-1{fill:#292929;}.cls-2{fill:#e7e7e7;}.cls-3,.cls-4{fill:none;stroke:#e7e7e7;stroke-width:3.3px;}.cls-3{stroke-linecap:square;}</style></defs><g id="Fond"><rect class="cls-1" width="92" height="92"/></g><g id="Tracés"><circle class="cls-2" cx="23.667" cy="25" r="3.25"/><circle class="cls-2" cx="68.333" cy="25" r="3.25"/><circle class="cls-2" cx="46" cy="25" r="3.25"/><circle class="cls-2" cx="23.667" cy="46" r="3.25"/><circle class="cls-2" cx="68.333" cy="46" r="3.25"/><circle class="cls-2" cx="46" cy="46" r="3.25"/><circle class="cls-2" cx="23.667" cy="67" r="3.25"/><circle class="cls-2" cx="46" cy="67" r="3.25"/><circle class="cls-2" cx="68.333" cy="67" r="3.25"/><circle class="cls-2" cx="23.65" cy="25.01" r="3.25"/><polyline class="cls-3" points="58.634 67.259 63.422 77.357 53.739 82.935"/><path class="cls-4" d="M63.422,77.357a35.211,35.211,0,0,1-14.11-6.76c-6.671-5.59-6.7-15.383-4-23,2.751-7.749,9.373-12.357,11.933-20.024,2.522-7.555-2.092-13.718-9.984-13.38-8.893.381-16.224,5.19-23.14,10.542"/></g></svg>