<svg xmlns="http://www.w3.org/2000/svg" viewBox="0 0 92 92"><defs><style>.cls-1{fill:#292929;}.cls-2{fill:#e7e7e7;}.cls-3,.cls-4{fill:none;stroke:#e7e7e7;stroke-width:3.3px;}.cls-3{stroke-linecap:square;}</style></defs><g id="Fond"><rect class="cls-1" width="92" height="92"/></g><g id="Tracés"><circle class="cls-2" cx="23.67" cy="25" r="3.25"/><circle class="cls-2" cx="68.33" cy="25" r="3.25"/><circle class="cls-2" cx="46" cy="25" r="3.25"/><circle class="cls-2" cx="23.67" cy="46" r="3.25"/><circle class="cls-2" cx="68.33" cy="46" r="3.25"/><circle class="cls-2" cx="46" cy="46" r="3.25"/><circle class="cls-2" cx="23.67" cy="67" r="3.25"/><circle class="cls-2" cx="46" cy="67" r="3.25"/><circle class="cls-2" cx="68.33" cy="67" r="3.25"/><circle class="cls-2" cx="23.65" cy="25.01" r="3.25"/><polyline class="cls-3" points="58.63 67.26 63.42 77.36 53.74 82.94"/><path class="cls-4" d="M63.42,77.36A35.28,35.28,0,0,1,49.31,70.6c-6.67-5.59-6.7-15.39-4-23s9.38-12.36,11.93-20-2.09-13.71-10-13.38c-8.89.38-16.22,5.19-23.14,10.55"/></g></svg>