<svg id="AICA_Square" data-name="AICA Square" xmlns="http://www.w3.org/2000/svg" viewBox="0 0 53.66 53.73"><defs><style>.cls-1{fill:#fff;}</style></defs><path class="cls-1" d="M47.05,65.26a6.57,6.57,0,0,1,5.26,2.09l2-1.58c-1.44-1.94-4.34-3-7.37-3-5,0-8.37,2.81-8.37,6.59S42,75.93,47,75.93c3,0,5.93-1.07,7.37-3l-2-1.58a6.57,6.57,0,0,1-5.26,2.09c-2.95,0-5.22-1.58-5.22-4.08S44.1,65.26,47.05,65.26Z" transform="translate(-29.86 -29.83)"/><path class="cls-1" d="M64,72.6h6.63l1.49,3.07h3.34L69,63H65.57L59.15,75.67h3.33Zm3.32-6.79,2.14,4.4h-4.3Z" transform="translate(-29.86 -29.83)"/><path class="cls-1" d="M42.14,37.32,35.71,50h3.34l1.5-3.06h6.62L48.66,50H52L45.56,37.32Zm-.43,7.19,2.15-4.4L46,44.51Z" transform="translate(-29.86 -29.83)"/><path class="cls-1" d="M83.53,29.83H29.86V83.56H83.52ZM57.86,32.16H81.19V55.52H57.86Zm-25.66,0H55.52V55.52H32.2Zm49,49.06h-49V57.86h49Z" transform="translate(-29.86 -29.83)"/><rect class="cls-1" x="38.13" y="7.49" width="3.06" height="12.65"/></svg>