<?xml version="1.0" encoding="utf-8"?>
<!-- Generator: Adobe Illustrator 24.3.0, SVG Export Plug-In . SVG Version: 6.00 Build 0)  -->
<svg version="1.1" id="AICA_Square" xmlns="http://www.w3.org/2000/svg" xmlns:xlink="http://www.w3.org/1999/xlink" x="0px"
	 y="0px" viewBox="0 0 79.3 53.7" style="enable-background:new 0 0 79.3 53.7;" xml:space="preserve">
<style type="text/css">
	.st0{fill:#1F1F1F;}
</style>
<path class="st0" d="M42.8,35.4c2-0.1,3.9,0.6,5.3,2.1l2-1.6c-1.4-1.9-4.3-3-7.4-3c-5,0-8.4,2.8-8.4,6.6s3.4,6.6,8.4,6.6
	c3,0,5.9-1.1,7.4-3l-2-1.6c-1.3,1.5-3.3,2.2-5.3,2.1c-3,0-5.2-1.6-5.2-4.1S39.9,35.4,42.8,35.4z"/>
<path class="st0" d="M59.8,42.8h6.6l1.5,3.1h3.3l-6.4-12.7h-3.4L55,45.8h3.3L59.8,42.8z M63.1,36l2.1,4.4H61L63.1,36z"/>
<path class="st0" d="M53.7,25.7V0H0v28h25.7v25.7h53.7v-28L53.7,25.7z M28,2.3h23.4v23.4H28V2.3z M2.3,25.7V2.3h23.3v23.4H2.3z
	 M77,51.4H28V28h49V51.4z"/>
<path class="st0" d="M12.3,7.5L5.8,20.2h3.3l1.5-3.1h6.6l1.5,3.1h3.3L15.7,7.5H12.3z M11.8,14.7l2.1-4.4l2.1,4.4L11.8,14.7z"/>
<rect x="38.1" y="7.5" class="st0" width="3.1" height="12.6"/>
</svg>
