<svg id="AICA_Original" data-name="AICA Original" xmlns="http://www.w3.org/2000/svg" viewBox="0 0 79.32 53.73"><defs><style>.cls-1{fill:#fff;}</style></defs><path class="cls-1" d="M59.88,65.26a6.56,6.56,0,0,1,5.26,2.09l2-1.58c-1.44-1.94-4.34-3-7.37-3-5,0-8.37,2.81-8.37,6.59s3.37,6.59,8.37,6.59c3,0,5.93-1.07,7.37-3l-2-1.58a6.56,6.56,0,0,1-5.26,2.09c-3,0-5.22-1.58-5.22-4.08S56.93,65.26,59.88,65.26Z" transform="translate(-17.03 -29.83)"/><path class="cls-1" d="M76.82,72.6h6.62l1.49,3.07h3.34L81.83,63H78.41L72,75.67h3.34Zm3.31-6.79,2.14,4.4H78Z" transform="translate(-17.03 -29.83)"/><path class="cls-1" d="M70.7,55.52V29.83H17v28H42.69v25.7H96.35v-28ZM45,32.16H68.36V55.52H45ZM19.37,55.52V32.16H42.69V55.52ZM94,81.22H45V57.86H94Z" transform="translate(-17.03 -29.83)"/><path class="cls-1" d="M29.31,37.32,22.88,50h3.34l1.5-3.06h6.63L35.83,50h3.34L32.74,37.32Zm-.43,7.19L31,40.11l2.14,4.4Z" transform="translate(-17.03 -29.83)"/><rect class="cls-1" x="38.13" y="7.49" width="3.06" height="12.65"/></svg>