<?xml version="1.0" encoding="utf-8"?>
<!-- Generator: Adobe Illustrator 24.3.0, SVG Export Plug-In . SVG Version: 6.00 Build 0)  -->
<svg version="1.1" id="AICA_Square" xmlns="http://www.w3.org/2000/svg" xmlns:xlink="http://www.w3.org/1999/xlink" x="0px"
	 y="0px" viewBox="0 0 53.7 53.7" style="enable-background:new 0 0 53.7 53.7;" xml:space="preserve">
<style type="text/css">
	.st0{fill:#1F1F1F;}
</style>
<path class="st0" d="M17.2,35.4c2-0.1,3.9,0.6,5.3,2.1l2-1.6c-1.4-1.9-4.3-3-7.4-3c-5,0-8.4,2.8-8.4,6.6s3.4,6.6,8.4,6.6
	c3,0,5.9-1.1,7.4-3l-2-1.6c-1.3,1.5-3.3,2.2-5.3,2.1c-3,0-5.2-1.6-5.2-4.1S14.2,35.4,17.2,35.4z"/>
<path class="st0" d="M34.1,42.8h6.6l1.5,3.1h3.3l-6.5-12.7h-3.4l-6.4,12.7h3.3L34.1,42.8z M37.5,36l2.1,4.4h-4.3L37.5,36z"/>
<path class="st0" d="M12.3,7.5L5.8,20.2h3.3l1.5-3.1h6.6l1.5,3.1h3.3L15.7,7.5H12.3z M11.8,14.7l2.2-4.4l2.1,4.4H11.8z"/>
<path class="st0" d="M53.7,0H0v53.7h53.7L53.7,0z M28,2.3h23.3v23.4H28V2.3z M2.3,2.3h23.3v23.4H2.3V2.3z M51.3,51.4h-49V28h49V51.4
	z"/>
<rect x="38.1" y="7.5" class="st0" width="3.1" height="12.6"/>
</svg>
