<svg id="Tracés" xmlns="http://www.w3.org/2000/svg" viewBox="0 0 92 92"><defs><style>.cls-1,.cls-2,.cls-3{fill:none;stroke:#e7e7e7;stroke-width:3px;}.cls-1{stroke-linecap:square;}.cls-3{stroke-linecap:round;stroke-dasharray:0 8.96;}</style></defs><g id="Calque_2" data-name="Calque 2"><path id="Tracé_2519" data-name="Tracé 2519" class="cls-1" d="M71.21,49.42l7,13.55-13,8"/><path id="Tracé_2451" data-name="Tracé 2451" class="cls-2" d="M17.6,49.6c2.23.94,4.9.16,7-.67,6.08-2.33,11.12-6.57,16.93-9.42.6-.29,1.22-.57,1.84-.83A13.79,13.79,0,0,1,51,37.41a6.84,6.84,0,0,1,5.54,4.75c.85,2.89.22,6.06-.53,8.91-.14.51-.29,1-.44,1.54-.83,2.78-1.89,5.47-2.94,8.17a25.24,25.24,0,0,1-5,8.38c-1.88,2-5,3-7.6,1.92a6,6,0,0,1-3.36-4.58,8.43,8.43,0,0,1,5-8.55,21.28,21.28,0,0,1,10.79-1.57c7.29.63,14.33,2.94,21.24,5.23.93.31,3.53,1.1,4.48,1.36"/><path id="Tracé_2451-2" data-name="Tracé 2451" class="cls-3" d="M16.59,13.11c3.86-2.23,11.8-6.28,14.31-.53,2.38,5.47-4.5,11.63-7.46,15.38-3.52,4.46-10.66,11.5-8.73,18A5.15,5.15,0,0,0,17.6,49.6"/></g></svg>